<?xml version="1.0" encoding="UTF-8"?><svg id="Calque_2" xmlns="http://www.w3.org/2000/svg" viewBox="0 0 192.3 267.63"><defs><style>.cls-1{font-family:CCSignLanguage-Regular, CCSignLanguage;font-size:44.73px;letter-spacing:.04em;}.cls-1,.cls-2{fill:#f9f193;}.cls-3{fill:#fff;}</style></defs><g id="Calque_4"><path class="cls-3" d="m77.08,155.85v34.4c0,2.12-1.71,3.83-3.83,3.83h-.78c-2.11,0-3.83-1.71-3.83-3.83v-37.78c2.71,1.34,5.53,2.46,8.44,3.38Z"/><path class="cls-3" d="m92.26,158.67v46.98c0,2.12-1.72,3.83-3.83,3.83h-.78c-2.12,0-3.83-1.71-3.83-3.83v-48.07c2.75.55,5.57.92,8.44,1.1Z"/><path class="cls-3" d="m123.66,152.48v37.77c0,2.12-1.71,3.83-3.83,3.83h-.78c-2.11,0-3.83-1.71-3.83-3.83v-34.4c2.91-.92,5.74-2.05,8.44-3.37Z"/><path class="cls-3" d="m108.49,157.58v48.07c0,2.12-1.72,3.83-3.83,3.83h-.78c-2.12,0-3.83-1.71-3.83-3.83v-46.98c2.87-.18,5.69-.55,8.44-1.1Z"/><path class="cls-3" d="m98.65,42.06v17.11c6.75.22,13.28,1.32,19.47,3.22,1.28-4.62,4.61-8.1,8.83-10.7-8.09-5.66-17.8-9.15-28.3-9.63Z"/><path class="cls-3" d="m93.65,64.16c-6.57.23-12.91,1.36-18.9,3.28-.23,6.56-3.28,12.87-6.81,20.13-5.88,12.1-12.95,26.67-8.25,47.83,9.02,8.31,20.88,13.57,33.96,14.17v-85.41Z"/><path class="cls-3" d="m117.54,67.44c-5.99-1.92-12.33-3.05-18.9-3.28v85.41c13.08-.6,24.94-5.86,33.96-14.17,4.7-21.16-2.37-35.73-8.25-47.83-3.53-7.26-6.59-13.57-6.81-20.13Z"/><path class="cls-3" d="m74.19,62.39c6.19-1.89,12.72-2.99,19.47-3.22v-17.11c-10.5.48-20.21,3.97-28.3,9.63,4.23,2.6,7.55,6.08,8.83,10.7Z"/><path class="cls-3" d="m63.45,85.4c2.87-5.91,5.39-11.14,6.11-16.05-10.4,4.27-19.56,10.98-26.76,19.4-.3,2.32-.48,4.67-.48,7.07,0,12.34,4.16,23.7,11.15,32.78-2.01-18.51,4.48-31.88,9.98-43.2Z"/><path class="cls-3" d="m122.74,69.34c.72,4.92,3.24,10.14,6.11,16.05,5.5,11.32,11.99,24.69,9.98,43.2,6.98-9.08,11.15-20.44,11.15-32.78,0-2.4-.17-4.76-.48-7.07-7.2-8.42-16.36-15.13-26.76-19.4Z"/><path class="cls-3" d="m131.19,54.98c-4.65,2.44-7.44,5.46-8.34,9.04,9.18,3.5,17.49,8.74,24.55,15.32-3.07-9.57-8.75-17.96-16.2-24.36Z"/><path class="cls-3" d="m61.11,54.98c-7.45,6.4-13.13,14.79-16.2,24.36,7.06-6.58,15.37-11.83,24.55-15.32-.9-3.58-3.7-6.6-8.34-9.04Z"/><path class="cls-3" d="m30.28,169.4c6.02,7.82,15.77,7.82,21.79,0-6.02-7.82-15.77-7.82-21.79,0Z"/><path class="cls-3" d="m53.86,145.82c-7.82,6.02-7.82,15.77,0,21.79,7.82-6.02,7.82-15.77,0-21.79Z"/><path class="cls-3" d="m15.8,153.97c4.17,8.94,13.69,11.07,21.26,4.75-4.17-8.94-13.69-11.07-21.26-4.75Z"/><path class="cls-3" d="m43.96,136.1c-8.94,4.17-11.07,13.69-4.75,21.26,8.94-4.17,11.07-13.69,4.75-21.26Z"/><path class="cls-3" d="m5.63,134.46c1.81,9.7,10.51,14.13,19.42,9.89-1.81-9.7-10.51-14.13-19.42-9.89Z"/><path class="cls-3" d="m37.34,124.15c-9.7,1.81-14.13,10.51-9.89,19.42,9.7-1.81,14.13-10.51,9.89-19.42Z"/><path class="cls-3" d="m.13,112.27c-1.2,9.79,5.76,16.64,15.53,15.28,1.2-9.79-5.76-16.64-15.53-15.28Z"/><path class="cls-3" d="m33.48,112.01c-9.79-1.2-16.64,5.76-15.28,15.53,9.79,1.2,16.64-5.76,15.28-15.53Z"/><path class="cls-3" d="m16.77,90.46c-7.82,6.02-7.82,15.77,0,21.79,7.82-6.02,7.82-15.77,0-21.79Z"/><path class="cls-3" d="m162.02,169.4c-6.02,7.82-15.77,7.82-21.79,0,6.02-7.82,15.77-7.82,21.79,0Z"/><path class="cls-3" d="m138.44,145.82c7.82,6.02,7.82,15.77,0,21.79-7.82-6.02-7.82-15.77,0-21.79Z"/><path class="cls-3" d="m176.5,153.97c-4.17,8.94-13.69,11.07-21.26,4.75,4.17-8.94,13.69-11.07,21.26-4.75Z"/><path class="cls-3" d="m148.34,136.1c8.94,4.17,11.07,13.69,4.75,21.26-8.94-4.17-11.07-13.69-4.75-21.26Z"/><path class="cls-3" d="m186.67,134.46c-1.81,9.7-10.51,14.13-19.42,9.89,1.81-9.7,10.51-14.13,19.42-9.89Z"/><path class="cls-3" d="m154.96,124.15c9.7,1.81,14.13,10.51,9.89,19.42-9.7-1.81-14.13-10.51-9.89-19.42Z"/><path class="cls-3" d="m192.17,112.27c1.2,9.79-5.76,16.64-15.53,15.28-1.2-9.79,5.76-16.64,15.53-15.28Z"/><path class="cls-3" d="m158.82,112.01c9.79-1.2,16.64,5.76,15.28,15.53-9.79,1.2-16.64-5.76-15.28-15.53Z"/><path class="cls-3" d="m175.53,90.46c7.82,6.02,7.82,15.77,0,21.79-7.82-6.02-7.82-15.77,0-21.79Z"/><polygon class="cls-2" points="96.15 0 101.23 10.29 112.59 11.94 104.37 19.95 106.31 31.27 96.15 25.92 85.99 31.27 87.93 19.95 79.71 11.94 91.07 10.29 96.15 0"/><polygon class="cls-2" points="60.82 16.37 64.36 23.55 72.29 24.7 66.55 30.29 67.91 38.18 60.82 34.46 53.73 38.18 55.08 30.29 49.35 24.7 57.27 23.55 60.82 16.37"/><polygon class="cls-2" points="131.48 17.19 135.03 24.37 142.95 25.52 137.22 31.11 138.57 39 131.48 35.28 124.39 39 125.75 31.11 120.01 25.52 127.94 24.37 131.48 17.19"/><text class="cls-1" transform="translate(14.48 258.55)"><tspan x="0" y="0">972BET</tspan></text></g></svg>